<svg height="512pt" viewBox="0 -46 512.00007 512" width="512pt" xmlns="http://www.w3.org/2000/svg"><path d="m240.328125 363.785156c-2.945313-10.402344-9.566406-19.445312-18.683594-25.453125-28.765625-18.90625-50.234375-46.148437-62.105469-78.753906l-12.03125-33.03125c-2.828124-7.796875-11.445312-11.796875-19.226562-8.96875-34.203125 12.40625 52.113281-19.324219-56.40625 20.527344-7.796875 2.828125-11.8125 11.445312-8.96875 19.230469l12.03125 33.03125c18.625 51.1875 52.375 93.875 97.601562 123.464843 2.53125 1.65625 5.390626 2.445313 8.203126 2.445313 3.058593.003906 63.832031-37.398438 59.585937-52.492188zm0 0" fill="#fde4e4"/><path d="m6.320312 277.867188c-19.8125-54.441407 8.535157-114.835938 62.960938-134.632813 53.980469-19.703125 114.625 7.742187 134.632812 62.78125 2.84375 7.78125-1.171874 16.398437-8.96875 19.226563l-169.398437 61.59375c-7.871094 2.855468-16.40625-1.242188-19.226563-8.96875zm0 0" fill="#ff7cb9"/><path d="m440.378906 238.109375c-14.820312-5.398437 35.792969 12.914063-56.402344-20.53125-7.738281-2.816406-16.402343 1.171875-19.230468 8.96875l-12.015625 33.03125c-11.871094 32.621094-33.355469 59.847656-62.136719 78.769531-10.007812 6.621094-16.894531 16.675782-19.371094 28.324219-2.613281 12.351563 56.632813 49.609375 60.289063 49.609375 2.8125 0 5.671875-.792969 8.207031-2.449219 45.238281-29.601562 78.988281-72.292969 97.613281-123.464843l12.015625-33.03125c2.84375-7.78125-1.171875-16.398438-8.96875-19.226563zm0 0" fill="#fcced3"/><path d="m491.507812 287.742188c-5.003906 0 3.8125 1.941406-174.195312-62.5-7.816406-2.851563-11.800781-11.460938-8.96875-19.226563 19.835938-54.515625 80.054688-82.675781 134.632812-62.78125 54.53125 19.8125 82.5 80.058594 62.628907 134.632813-2.214844 6.09375-7.972657 9.875-14.097657 9.875zm0 0" fill="#fa5e97"/><path d="m300.914062 105.042969v285.121093c0 7.503907-5.402343 13.507813-12.605468 14.40625v.601563h-62.429688c-8.402344 0-15.003906-6.601563-15.003906-15.007813v-285.121093c0-8.402344 6.601562-15.003907 15.003906-15.003907h62.429688v.601563c7.203125.898437 12.605468 6.902344 12.605468 14.402344zm0 0" fill="#fde4e4"/><path d="m300.914062 105.042969v285.121093c0 7.503907-5.402343 13.507813-12.605468 14.40625v.601563h-32.414063v-315.132813h32.414063v.601563c7.203125.898437 12.605468 6.902344 12.605468 14.402344zm0 0" fill="#fcced3"/><path d="m255.894531 0c-57.925781 0-105.046875 47.121094-105.046875 105.042969 0 8.40625 6.601563 15.007812 15.007813 15.007812h180.078125c8.402344 0 15.003906-6.601562 15.003906-15.007812 0-57.921875-47.121094-105.042969-105.042969-105.042969zm0 0" fill="#ff7cb9"/><path d="m450.976562 405.171875c0 8.40625-6.601562 15.007813-15.007812 15.007813h-360.152344c-8.402344 0-15.003906-6.601563-15.003906-15.007813s6.601562-15.007813 15.003906-15.007813h360.152344c8.40625 0 15.007812 6.601563 15.007812 15.007813zm0 0" fill="#9cdd05"/><path d="m345.933594 120.050781h-90.039063v-120.050781c57.921875 0 105.042969 47.121094 105.042969 105.042969 0 8.40625-6.601562 15.007812-15.003906 15.007812zm0 0" fill="#fa5e97"/><path d="m450.976562 405.171875c0 8.40625-6.601562 15.007813-15.007812 15.007813h-180.074219v-30.015626h180.074219c8.40625 0 15.007812 6.601563 15.007812 15.007813zm0 0" fill="#6b0"/></svg>